<?xml version="1.0" encoding="UTF-8"?>
<svg id="Layer_2" data-name="Layer 2" xmlns="http://www.w3.org/2000/svg" viewBox="0 0 348.04 52.34">
  <defs>
    <style>
      .cls-3 {
        fill: #fff;
        stroke-width: 0px;
      }
    </style>
  </defs>
  <g id="Layer_1-2" data-name="Layer 1">
    <g id="section_headers" data-name="section headers">
      <g id="about_me" data-name="about me">
        <path class="cls-3" d="m31.03,0l19.22,51.41h-11.74l-3.89-11.45H15.41l-4.03,11.45H0L19.44,0h11.59Zm.65,31.54l-6.48-18.86h-.14l-6.7,18.86h13.32Z"/>
        <path class="cls-3" d="m63.86,0v18.72h.14c1.25-1.92,2.94-3.32,5.08-4.21,2.14-.89,4.36-1.33,6.66-1.33,1.87,0,3.72.38,5.54,1.15,1.82.77,3.47,1.94,4.93,3.53,1.46,1.58,2.65,3.61,3.56,6.08.91,2.47,1.37,5.41,1.37,8.82s-.46,6.35-1.37,8.82c-.91,2.47-2.1,4.5-3.56,6.08-1.46,1.58-3.11,2.76-4.93,3.53-1.82.77-3.67,1.15-5.54,1.15-2.74,0-5.18-.43-7.34-1.3-2.16-.86-3.79-2.33-4.9-4.39h-.14v4.75h-9.72V0h10.22Zm16.56,28.3c-.34-1.44-.86-2.71-1.58-3.82-.72-1.1-1.62-1.98-2.7-2.63-1.08-.65-2.39-.97-3.92-.97s-2.78.32-3.89.97c-1.1.65-2.02,1.52-2.74,2.63-.72,1.1-1.25,2.38-1.58,3.82-.34,1.44-.5,2.95-.5,4.54s.17,3.02.5,4.46c.34,1.44.86,2.71,1.58,3.82.72,1.1,1.63,1.98,2.74,2.63,1.1.65,2.4.97,3.89.97s2.84-.32,3.92-.97c1.08-.65,1.98-1.52,2.7-2.63.72-1.1,1.25-2.38,1.58-3.82.34-1.44.5-2.93.5-4.46s-.17-3.1-.5-4.54Z"/>
        <path class="cls-3" d="m97.85,24.73c.91-2.42,2.21-4.49,3.89-6.19,1.68-1.7,3.7-3.02,6.05-3.96,2.35-.94,4.99-1.4,7.92-1.4s5.58.47,7.96,1.4c2.38.94,4.4,2.26,6.08,3.96,1.68,1.7,2.98,3.77,3.89,6.19.91,2.42,1.37,5.12,1.37,8.1s-.46,5.66-1.37,8.06c-.91,2.4-2.21,4.45-3.89,6.16-1.68,1.71-3.71,3.01-6.08,3.92s-5.03,1.37-7.96,1.37-5.57-.46-7.92-1.37c-2.35-.91-4.37-2.22-6.05-3.92-1.68-1.7-2.98-3.75-3.89-6.16-.91-2.4-1.37-5.09-1.37-8.06s.46-5.68,1.37-8.1Zm9.29,12.46c.29,1.42.78,2.69,1.48,3.82.7,1.13,1.62,2.03,2.77,2.7,1.15.67,2.59,1.01,4.32,1.01s3.18-.33,4.36-1.01c1.18-.67,2.11-1.57,2.81-2.7.7-1.13,1.19-2.4,1.48-3.82.29-1.42.43-2.87.43-4.36s-.14-2.95-.43-4.39c-.29-1.44-.78-2.71-1.48-3.82-.7-1.1-1.63-2-2.81-2.7-1.18-.7-2.63-1.04-4.36-1.04s-3.17.35-4.32,1.04c-1.15.7-2.08,1.6-2.77,2.7-.7,1.1-1.19,2.38-1.48,3.82-.29,1.44-.43,2.9-.43,4.39s.14,2.94.43,4.36Z"/>
        <path class="cls-3" d="m166.82,51.41v-5.18h-.22c-1.3,2.16-2.98,3.72-5.04,4.68-2.06.96-4.18,1.44-6.34,1.44-2.74,0-4.98-.36-6.73-1.08-1.75-.72-3.13-1.74-4.14-3.06-1.01-1.32-1.72-2.93-2.12-4.82-.41-1.9-.61-4-.61-6.3V14.18h10.22v21.02c0,3.07.48,5.36,1.44,6.88.96,1.51,2.66,2.27,5.11,2.27,2.78,0,4.8-.83,6.05-2.48,1.25-1.66,1.87-4.38,1.87-8.17V14.18h10.22v37.22h-9.72Z"/>
        <path class="cls-3" d="m204.77,14.18v6.84h-7.49v18.43c0,1.73.29,2.88.86,3.46s1.73.86,3.46.86c.58,0,1.13-.02,1.66-.07.53-.05,1.03-.12,1.51-.22v7.92c-.86.14-1.83.24-2.88.29-1.06.05-2.09.07-3.1.07-1.58,0-3.08-.11-4.5-.32-1.42-.22-2.66-.64-3.74-1.26s-1.93-1.51-2.56-2.66c-.62-1.15-.94-2.66-.94-4.54v-21.96h-6.19v-6.84h6.19V3.02h10.22v11.16h7.49Z"/>
        <path class="cls-3" d="m246.67,0l12.02,35.35h.14L270.21,0h15.91v51.41h-10.58V14.98h-.14l-12.6,36.43h-8.71l-12.6-36.07h-.14v36.07h-10.58V0h15.91Z"/>
        <path class="cls-3" d="m305.93,42.48c1.54,1.49,3.74,2.23,6.62,2.23,2.06,0,3.84-.51,5.33-1.55,1.49-1.03,2.4-2.12,2.74-3.28h9c-1.44,4.46-3.65,7.66-6.62,9.58-2.98,1.92-6.58,2.88-10.8,2.88-2.93,0-5.57-.47-7.92-1.4-2.35-.94-4.34-2.27-5.98-4-1.63-1.73-2.89-3.79-3.78-6.19-.89-2.4-1.33-5.04-1.33-7.92s.46-5.38,1.37-7.78c.91-2.4,2.21-4.48,3.89-6.23,1.68-1.75,3.68-3.13,6.01-4.14s4.91-1.51,7.74-1.51c3.17,0,5.93.61,8.28,1.84,2.35,1.22,4.28,2.87,5.8,4.93,1.51,2.06,2.6,4.42,3.28,7.06.67,2.64.91,5.4.72,8.28h-26.86c.14,3.31.98,5.71,2.52,7.2Zm11.56-19.58c-1.22-1.34-3.09-2.02-5.58-2.02-1.63,0-2.99.28-4.07.83-1.08.55-1.94,1.24-2.59,2.05-.65.82-1.11,1.68-1.37,2.59-.26.91-.42,1.73-.47,2.45h16.63c-.48-2.59-1.33-4.56-2.55-5.9Z"/>
        <path class="cls-3" d="m348.04,45.86h0c0,3.06-2.48,5.54-5.54,5.54h-.22c-3.06,0-5.54-2.48-5.54-5.54h0c0-3.06,2.48-5.54,5.54-5.54h.22c3.06,0,5.54,2.48,5.54,5.54Z"/>
      </g>
    </g>
  </g>
</svg>