<?xml version="1.0" encoding="UTF-8"?>
<svg id="Layer_2" data-name="Layer 2" xmlns="http://www.w3.org/2000/svg" viewBox="0 0 286.27 53.78">
  <defs>
    <style>
      .cls-3 {
        fill: #fff;
        stroke-width: 0px;
      }
    </style>
  </defs>
  <g id="Layer_1-2" data-name="Layer 1">
    <g id="section_headers" data-name="section headers">
      <g id="contact">
        <path class="cls-3" d="m35.21,14.94c-.67-1.08-1.51-2.03-2.52-2.84-1.01-.82-2.15-1.45-3.42-1.91-1.27-.46-2.6-.68-4-.68-2.54,0-4.71.49-6.48,1.48-1.78.98-3.22,2.3-4.32,3.96-1.11,1.66-1.91,3.54-2.41,5.65-.5,2.11-.76,4.3-.76,6.55s.25,4.26.76,6.3c.5,2.04,1.31,3.88,2.41,5.51,1.1,1.63,2.54,2.94,4.32,3.92,1.78.98,3.94,1.48,6.48,1.48,3.46,0,6.16-1.05,8.1-3.17,1.94-2.11,3.13-4.9,3.56-8.35h10.94c-.29,3.22-1.03,6.12-2.23,8.71-1.2,2.59-2.78,4.8-4.75,6.62-1.97,1.82-4.27,3.22-6.91,4.18-2.64.96-5.54,1.44-8.71,1.44-3.94,0-7.48-.68-10.62-2.05-3.14-1.37-5.8-3.25-7.96-5.65-2.16-2.4-3.82-5.22-4.97-8.46-1.15-3.24-1.73-6.73-1.73-10.48s.58-7.4,1.73-10.69c1.15-3.29,2.81-6.16,4.97-8.6s4.81-4.37,7.96-5.76c3.14-1.39,6.68-2.09,10.62-2.09,2.83,0,5.51.41,8.03,1.22,2.52.82,4.78,2,6.77,3.56,1.99,1.56,3.64,3.49,4.93,5.8s2.11,4.94,2.45,7.92h-10.94c-.19-1.3-.62-2.48-1.3-3.56Z"/>
        <path class="cls-3" d="m54.72,25.96c.91-2.42,2.21-4.49,3.89-6.19,1.68-1.7,3.7-3.02,6.05-3.96,2.35-.94,4.99-1.4,7.92-1.4s5.58.47,7.96,1.4c2.38.94,4.4,2.26,6.08,3.96,1.68,1.7,2.98,3.77,3.89,6.19.91,2.42,1.37,5.12,1.37,8.1s-.46,5.66-1.37,8.06c-.91,2.4-2.21,4.45-3.89,6.16-1.68,1.71-3.71,3.01-6.08,3.92s-5.03,1.37-7.96,1.37-5.57-.46-7.92-1.37c-2.35-.91-4.37-2.22-6.05-3.92-1.68-1.7-2.98-3.75-3.89-6.16-.91-2.4-1.37-5.09-1.37-8.06s.46-5.68,1.37-8.1Zm9.29,12.46c.29,1.42.78,2.69,1.48,3.82.7,1.13,1.62,2.03,2.77,2.7,1.15.67,2.59,1.01,4.32,1.01s3.18-.33,4.36-1.01c1.18-.67,2.11-1.57,2.81-2.7.7-1.13,1.19-2.4,1.48-3.82.29-1.42.43-2.87.43-4.36s-.14-2.95-.43-4.39c-.29-1.44-.78-2.71-1.48-3.82-.7-1.1-1.63-2-2.81-2.7-1.18-.7-2.63-1.04-4.36-1.04s-3.17.35-4.32,1.04c-1.15.7-2.08,1.6-2.77,2.7-.7,1.1-1.19,2.38-1.48,3.82-.29,1.44-.43,2.9-.43,4.39s.14,2.94.43,4.36Z"/>
        <path class="cls-3" d="m108.21,15.41v5.18h.22c1.3-2.16,2.98-3.73,5.04-4.72,2.06-.98,4.18-1.48,6.34-1.48,2.74,0,4.98.37,6.73,1.12,1.75.75,3.13,1.78,4.14,3.1s1.72,2.93,2.12,4.82c.41,1.9.61,4,.61,6.3v22.9h-10.22v-21.02c0-3.07-.48-5.36-1.44-6.88-.96-1.51-2.66-2.27-5.11-2.27-2.78,0-4.8.83-6.05,2.48-1.25,1.66-1.87,4.38-1.87,8.17v19.51h-10.22V15.41h9.72Z"/>
        <path class="cls-3" d="m161.64,15.41v6.84h-7.49v18.43c0,1.73.29,2.88.86,3.46s1.73.86,3.46.86c.58,0,1.13-.02,1.66-.07.53-.05,1.03-.12,1.51-.22v7.92c-.86.14-1.82.24-2.88.29-1.06.05-2.09.07-3.1.07-1.58,0-3.08-.11-4.5-.32s-2.66-.64-3.74-1.26c-1.08-.62-1.93-1.51-2.56-2.66-.62-1.15-.94-2.66-.94-4.54v-21.96h-6.19v-6.84h6.19V4.25h10.22v11.16h7.49Z"/>
        <path class="cls-3" d="m166.1,26.86c.14-2.4.74-4.39,1.8-5.98s2.4-2.86,4.03-3.82c1.63-.96,3.47-1.64,5.51-2.05,2.04-.41,4.09-.61,6.16-.61,1.87,0,3.77.13,5.69.4,1.92.26,3.67.78,5.26,1.55,1.58.77,2.88,1.84,3.89,3.2s1.51,3.18,1.51,5.44v19.37c0,1.68.1,3.29.29,4.82.19,1.54.53,2.69,1.01,3.46h-10.37c-.19-.58-.35-1.16-.47-1.76-.12-.6-.2-1.21-.25-1.84-1.63,1.68-3.55,2.86-5.76,3.53-2.21.67-4.46,1.01-6.77,1.01-1.78,0-3.43-.22-4.97-.65s-2.88-1.1-4.03-2.02c-1.15-.91-2.05-2.06-2.7-3.46-.65-1.39-.97-3.05-.97-4.97,0-2.11.37-3.85,1.12-5.22s1.7-2.46,2.88-3.28c1.18-.82,2.52-1.43,4.03-1.84,1.51-.41,3.04-.73,4.57-.97,1.54-.24,3.05-.43,4.54-.58,1.49-.14,2.81-.36,3.96-.65,1.15-.29,2.06-.71,2.74-1.26.67-.55.98-1.36.94-2.41,0-1.1-.18-1.98-.54-2.63-.36-.65-.84-1.15-1.44-1.51-.6-.36-1.3-.6-2.09-.72-.79-.12-1.64-.18-2.56-.18-2.02,0-3.6.43-4.75,1.3-1.15.86-1.83,2.3-2.02,4.32h-10.22Zm23.62,7.56c-.43.38-.97.68-1.62.9-.65.22-1.34.4-2.09.54-.75.14-1.52.26-2.34.36-.82.1-1.63.22-2.45.36-.77.14-1.52.34-2.27.58-.75.24-1.39.57-1.94.97-.55.41-1,.92-1.33,1.55-.34.62-.5,1.42-.5,2.38s.17,1.68.5,2.3c.33.62.79,1.12,1.37,1.48.58.36,1.25.61,2.02.76.77.14,1.56.22,2.38.22,2.02,0,3.58-.33,4.68-1.01,1.1-.67,1.92-1.48,2.45-2.41.53-.94.85-1.88.97-2.84.12-.96.18-1.73.18-2.3v-3.82Z"/>
        <path class="cls-3" d="m225.64,22.1c-1.63,0-3,.37-4.1,1.12-1.1.75-2,1.7-2.7,2.88-.7,1.18-1.19,2.47-1.48,3.89s-.43,2.82-.43,4.21.14,2.71.43,4.1c.29,1.39.76,2.65,1.4,3.78.65,1.13,1.52,2.05,2.63,2.77,1.1.72,2.45,1.08,4.03,1.08,2.45,0,4.33-.68,5.65-2.05s2.15-3.2,2.48-5.51h9.86c-.67,4.94-2.59,8.71-5.76,11.3s-7.22,3.89-12.17,3.89c-2.78,0-5.34-.47-7.67-1.4-2.33-.94-4.31-2.24-5.94-3.92-1.63-1.68-2.9-3.68-3.82-6.01-.91-2.33-1.37-4.88-1.37-7.67s.42-5.55,1.26-8.03c.84-2.47,2.08-4.61,3.71-6.41s3.62-3.2,5.98-4.21c2.35-1.01,5.04-1.51,8.06-1.51,2.21,0,4.33.29,6.37.86,2.04.58,3.86,1.45,5.47,2.63,1.61,1.18,2.92,2.64,3.92,4.39s1.58,3.83,1.73,6.23h-10.01c-.67-4.27-3.19-6.41-7.56-6.41Z"/>
        <path class="cls-3" d="m269.63,15.41v6.84h-7.49v18.43c0,1.73.29,2.88.86,3.46s1.73.86,3.46.86c.58,0,1.13-.02,1.66-.07.53-.05,1.03-.12,1.51-.22v7.92c-.86.14-1.83.24-2.88.29-1.06.05-2.09.07-3.1.07-1.58,0-3.08-.11-4.5-.32s-2.66-.64-3.74-1.26c-1.08-.62-1.93-1.51-2.56-2.66-.62-1.15-.94-2.66-.94-4.54v-21.96h-6.19v-6.84h6.19V4.25h10.22v11.16h7.49Z"/>
        <path class="cls-3" d="m286.27,47.09h0c0,3.06-2.48,5.54-5.54,5.54h-.22c-3.06,0-5.54-2.48-5.54-5.54h0c0-3.06,2.48-5.54,5.54-5.54h.22c3.06,0,5.54,2.48,5.54,5.54Z"/>
      </g>
    </g>
  </g>
</svg>